PathFileType	4	(X/Y/Z)	D:\TRACE\spotREDO_2-26-24\spot_justBody_Motion_3_1-v60.trc
DataRate	CameraRate	NumFrames	NumMarkers	Units	OrigDataRate	OrigDataStartFrame	OrigNumFrames
100.00	100.00	      42	9	mm	100.00	6126	      7000
Frame#	Time	front left toe			Front right toe			aft left toe			aft right toe			Arm			FL body			FR body			AL Body			AR Body			
		X1	Y1	Z1	X2	Y2	Z2	X3	Y3	Z3	X4	Y4	Z4	X5	Y5	Z5	X6	Y6	Z6	X7	Y7	Z7	X8	Y8	Z8	X9	Y9	Z9	

6126	61.250	-208.43846	28.55000	-191.05411	317.08554	26.36724	-121.46599	-125.36792	15.88051	239.78102	316.73032	17.79680	319.48337	40.54596	815.09253	-380.21008	-41.68206	555.93994	-351.53351	114.01705	559.17517	-368.48926	49.19091	556.08801	527.68622	191.08760	558.90851	514.07123	
6127	61.260	-208.45775	28.51018	-191.11491	317.07550	26.35454	-121.47860	-125.36684	15.92850	239.78600	316.73782	17.78939	319.48828	40.41096	815.11993	-380.15015	-41.68105	555.89893	-351.50696	113.97673	559.21814	-368.42114	48.98507	556.06213	527.72107	190.93402	558.88531	514.11157	
6128	61.270	-208.44936	28.43561	-191.10785	317.08331	26.34655	-121.45265	-125.37308	15.85044	239.81525	316.79633	17.85112	319.47363	40.31746	815.13593	-380.09152	-41.71829	555.85858	-351.44580	113.95876	559.22296	-368.31598	48.86963	555.95483	527.81360	190.82811	558.86847	514.16461	
6129	61.280	-208.46722	28.37775	-191.11511	317.05453	26.34089	-121.46586	-125.36543	15.90726	239.77823	316.68112	17.78070	319.47308	40.21511	815.15741	-379.97107	-41.69293	555.82703	-351.41766	113.91115	559.22827	-368.24875	48.69735	555.91870	527.92999	190.72690	558.86639	514.18689	
6130	61.290	-208.46008	28.34993	-191.22487	317.05920	26.33150	-121.48918	-125.34957	15.97378	239.75511	316.73303	17.83868	319.46802	40.11210	815.16205	-379.89795	-41.77941	555.84912	-351.35959	113.96212	559.25116	-368.19608	48.62160	555.91772	528.06683	190.68054	558.91327	514.23798	
6131	61.300	-208.43300	28.30899	-191.22957	317.08646	26.31019	-121.49304	-125.40506	16.07252	239.65616	316.71399	17.88381	319.45679	40.05781	815.15112	-379.79388	-41.79333	555.83838	-351.31897	113.93661	559.30658	-368.11887	48.56533	555.92609	528.12970	190.60484	558.96832	514.25995	
6132	61.310	-208.49065	28.31264	-191.26247	317.12585	26.29780	-121.53714	-125.39780	16.09989	239.62555	316.78625	17.95106	319.44193	40.01627	815.15643	-379.73572	-41.75999	555.81390	-351.21860	113.95559	559.36627	-368.05310	48.51161	555.91553	528.22614	190.60660	558.98212	514.29980	
6133	61.320	-208.42502	28.23280	-191.30475	317.08795	26.30413	-121.55785	-125.42944	16.18686	239.58522	316.75345	17.98059	319.40466	39.91682	815.17316	-379.67526	-41.84647	555.84100	-351.18774	113.94064	559.39850	-367.98990	48.49174	555.92377	528.25604	190.52422	559.01611	514.34625	
6134	61.330	-208.36574	28.17182	-191.31500	317.07623	26.28807	-121.62226	-125.39425	16.16032	239.61417	316.75510	18.05437	319.34418	39.80363	815.22070	-379.58987	-41.97853	555.90210	-351.11414	113.94267	559.41370	-367.94806	48.42843	555.90295	528.31042	190.51242	558.99512	514.40802	
6135	61.340	-208.38458	28.17751	-191.33669	317.09189	26.22910	-121.69270	-125.37920	16.17193	239.59142	316.81540	18.10842	319.32932	39.75190	815.21405	-379.53949	-41.94402	555.83099	-351.07483	113.96612	559.45770	-367.89398	48.42720	555.90704	528.33893	190.40265	559.07379	514.45862	
6136	61.350	-208.38773	28.14187	-191.35268	317.10928	26.20806	-121.69415	-125.43819	16.27479	239.54195	316.77728	18.20119	319.26505	39.73508	815.18677	-379.46844	-41.99577	555.81635	-351.01355	113.93522	559.52106	-367.90076	48.48251	555.90308	528.40240	190.37537	559.08179	514.45209	
6137	61.360	-208.41158	28.12563	-191.39137	317.13998	26.18011	-121.77798	-125.44608	16.29193	239.53087	316.80948	18.26305	319.24902	39.66997	815.19421	-379.48181	-42.05700	555.83197	-350.97119	114.06904	559.61505	-367.59259	48.44333	555.91077	528.40308	190.28082	559.13770	514.51703	
6138	61.370	-208.41812	28.05465	-191.40912	317.10986	26.12368	-121.80157	-125.40378	16.29422	239.49944	316.79797	18.36155	319.20447	39.53792	815.17328	-379.47784	-42.00741	555.78644	-350.92169	114.06776	559.66821	-367.53513	48.44455	555.86011	528.45593	190.19319	559.16644	514.54730	
6139	61.380	-208.39529	28.02388	-191.44214	317.09692	26.08618	-121.88810	-125.48109	16.37337	239.47256	316.78613	18.40052	319.19342	39.40355	815.18793	-379.44446	-42.04385	555.75616	-350.91928	114.05277	559.70435	-367.50565	48.35678	555.83160	528.46710	190.28444	559.01904	514.63788	
6140	61.390	-208.39258	27.94068	-191.44847	317.15646	26.09224	-122.00534	-125.45675	16.42337	239.42081	316.90405	18.50788	319.18906	39.34052	815.19122	-379.41446	-42.02338	555.67029	-350.85782	114.05536	559.75769	-367.49982	48.37106	555.85364	528.50989	189.96867	559.24841	514.58203	
6141	61.400	-208.29369	27.88284	-191.47348	317.24228	25.98456	-122.03337	-125.35779	16.42398	239.42580	316.90524	18.53373	319.18423	39.29513	815.20514	-379.42520	-42.08916	555.74774	-350.86667	114.02328	559.79419	-367.47488	48.36243	555.81958	528.53925	190.07260	559.09674	514.70099	
6142	61.410	-208.21091	27.88099	-191.51071	317.40964	25.95359	-122.03058	-125.25353	16.46548	239.37808	317.13751	18.65911	319.16333	39.24840	815.18451	-379.37311	-42.09148	555.71918	-350.84561	114.00321	559.83063	-367.48230	48.32468	555.81464	528.54407	190.06557	559.13086	514.69708	
6143	61.420	-208.18433	27.67174	-191.42674	317.37582	26.16791	-122.14127	-124.99642	16.46840	239.44400	317.25403	18.67509	319.13635	39.08355	815.19202	-379.31784	-42.06495	555.67224	-350.78775	114.04714	559.83771	-367.44846	48.20804	555.80402	528.56396	190.07396	559.16022	514.75983	
6144	61.430	-208.15614	27.49794	-191.50809	317.59940	25.90479	-121.99332	-124.68747	16.45906	239.36481	317.30710	18.75108	319.12671	38.99678	815.07788	-379.37091	-41.73782	555.30469	-350.75278	114.10703	559.78186	-367.42047	47.79386	555.90015	528.51636	189.62204	559.42419	514.75018	
6145	61.440	-207.88829	27.36337	-191.70146	318.03867	25.67747	-122.13582	-124.61202	16.72715	239.13573	317.35504	19.00354	319.17542	38.77142	815.00977	-379.39908	-41.76713	555.31604	-351.09628	114.21330	559.79913	-367.38443	47.49857	555.86053	528.50525	189.30666	559.60199	514.94318	
6146	61.450	-207.72173	27.34023	-191.74228	317.89297	25.69293	-122.05213	-124.69511	16.62917	238.86720	317.28577	18.99953	319.11771	38.58505	814.97778	-379.39108	-41.24460	555.05402	-350.64676	114.40075	559.86542	-367.26077	47.41023	555.48529	528.65051	189.27063	559.49725	515.06866	
6147	61.460	-207.66507	27.26118	-191.77974	317.90198	25.58608	-122.11543	-124.67009	16.58366	238.93968	317.38934	19.09563	319.15338	38.81174	814.98016	-379.20999	-40.88795	555.02582	-350.55347	114.86430	559.98926	-366.97742	47.25877	555.28143	528.85883	189.00854	559.48730	515.36639	
6148	61.470	-207.55872	27.27876	-191.81815	317.97107	25.61989	-122.05292	-124.60158	16.63305	238.93585	317.44855	19.12360	319.15057	39.04194	815.14032	-378.89597	-40.38309	554.92908	-350.32620	115.18851	560.12305	-367.00430	47.11190	555.20099	529.03284	188.80231	559.52515	515.78271	
6149	61.480	-207.43535	27.24349	-191.88728	318.10138	25.63426	-122.00910	-124.45720	16.65691	238.93343	317.54080	19.18332	319.19461	39.20360	815.19537	-378.53055	-40.05256	554.94305	-350.15143	115.37428	560.13861	-366.75894	46.85331	555.26978	529.23358	188.86223	559.46796	516.15680	
6150	61.490	-207.38290	27.24216	-191.87221	318.22079	25.57531	-122.01631	-124.37040	16.72472	238.92264	317.55444	19.24939	319.17560	39.51096	815.19287	-377.85800	-39.87825	555.02496	-350.03491	115.39049	560.52051	-366.81723	46.73553	555.18646	529.64410	189.15814	559.29138	516.56616	
6151	61.500	-207.31171	27.22858	-191.89034	318.35284	25.53763	-122.02669	-124.28675	16.79259	238.97412	317.61301	19.32587	319.17172	39.75140	815.23267	-377.41943	-39.74342	555.20288	-349.80490	115.78583	560.61938	-366.26736	46.68924	555.11072	530.10901	189.25536	559.12781	517.12640	
6152	61.510	-207.22588	27.23575	-191.96831	318.50882	25.49597	-122.01836	-124.19249	16.95176	238.96625	317.63461	19.31341	319.19125	39.80786	815.35779	-377.22794	-39.55065	555.36859	-349.35712	116.06039	560.71124	-366.01260	46.61395	554.97992	530.47144	188.83049	559.17499	517.30408	
6153	61.520	-207.07008	27.20835	-192.00229	318.56348	25.53956	-121.99892	-124.06002	17.11110	238.98218	317.83096	19.43870	319.24896	39.93142	815.71051	-376.85529	-39.12309	555.51831	-348.64630	116.38435	560.93011	-365.61688	46.76242	554.84326	530.97571	188.92937	559.09082	517.80957	
6154	61.530	-206.95549	27.22915	-192.10001	318.68277	25.54008	-122.01445	-124.00237	17.14543	238.88435	317.95190	19.48639	319.22858	40.43926	815.93817	-376.00711	-38.78601	555.70776	-348.38458	116.86572	561.27393	-365.11679	46.89743	554.72351	531.21515	189.05701	559.16901	518.27441	
6155	61.540	-206.83415	27.17638	-192.19066	318.73526	25.52640	-122.00568	-123.88828	17.19714	238.94157	318.01581	19.48969	319.29126	40.80118	816.18658	-375.42725	-38.48315	555.86383	-347.92892	117.20683	561.58356	-364.66339	47.82824	554.12152	531.98456	189.06453	559.00116	518.87079	
6156	61.550	-206.74152	27.10261	-192.18237	318.77988	25.44646	-122.00716	-123.82382	17.17423	238.98151	318.06125	19.52188	319.28598	41.19130	816.38916	-374.94275	-38.02242	556.08661	-347.57748	117.57532	561.78143	-364.06088	47.89397	553.89740	532.65900	188.96246	558.90900	519.45081	
6157	61.560	-206.65672	27.10020	-192.18697	318.93317	25.45913	-121.96365	-123.76141	17.56863	238.77689	318.31693	19.65137	319.36792	41.67090	816.60907	-374.50894	-37.39138	556.09113	-346.87811	117.90237	561.96387	-363.63501	47.95704	553.80994	533.09814	188.93915	558.77429	519.92657	
6158	61.570	-206.58688	27.11350	-192.24440	319.01950	25.44472	-121.97810	-123.21881	17.14786	239.05319	318.41220	19.72514	319.34836	42.27697	816.64752	-373.60437	-36.88417	556.39105	-346.37878	118.43731	562.15564	-362.98325	48.07521	553.80383	533.58533	189.31821	558.55988	520.59125	
6159	61.580	-206.42975	27.11970	-192.33800	319.09280	25.43652	-121.95114	-123.16037	17.16601	239.02190	318.63608	19.89385	319.41702	42.45561	816.83698	-373.17996	-36.59912	556.51666	-346.17010	119.00167	562.20966	-362.33405	48.17870	553.75427	534.29242	189.20712	558.53265	521.26129	
6160	61.590	-206.23154	26.99816	-192.37056	319.30997	25.47417	-121.89621	-123.16661	17.33006	238.99199	318.79556	20.05149	319.50732	43.19734	817.02161	-372.42642	-35.99968	556.64502	-345.26343	119.54803	562.32806	-361.87189	48.56290	553.03912	534.61243	189.36578	558.53937	521.99200	
6161	61.600	-206.23445	26.97886	-192.39781	319.31488	25.42299	-121.90771	-123.53335	17.88722	238.58176	318.81119	20.10019	319.53137	43.91240	817.00037	-371.79654	-35.38068	556.80853	-344.81607	120.41360	562.11389	-360.44409	48.59587	552.99548	535.13965	189.43176	558.46191	522.68262	
6162	61.610	-206.18571	26.98232	-192.41745	319.27271	25.40791	-121.90662	-123.47649	17.86976	238.59993	318.76453	20.11715	319.56528	44.41371	817.24713	-371.15491	-34.70908	557.08215	-344.33847	120.87556	562.32898	-359.72552	48.73636	553.04077	535.84491	189.35040	558.50818	523.36859	
6163	61.620	-206.13126	26.97812	-192.41916	319.40054	25.40233	-121.85663	-123.48974	17.93954	238.52852	318.87866	20.23291	319.60590	45.10196	817.34705	-370.14590	-34.58830	557.35925	-344.15344	121.37383	562.42877	-359.05429	48.75217	553.12433	536.46472	189.33934	558.66370	524.18225	
6164	61.630	-205.97746	27.02000	-192.45709	319.48663	25.35851	-121.77785	-123.39641	17.87489	238.56482	318.81366	20.25214	319.61063	45.62215	817.50616	-369.64575	-33.59731	557.21289	-342.85358	121.86906	563.02985	-359.05148	48.77800	553.17975	537.18109	189.49890	558.59363	524.87488	
6165	61.640	-205.95441	27.05340	-192.47623	319.71692	25.27986	-121.70142	-123.47208	17.95612	238.53227	318.92062	20.23549	319.63171	46.04834	817.50378	-369.02600	-33.26025	557.23895	-342.56024	122.16576	562.96576	-358.13312	49.05435	553.20923	537.90686	189.52258	558.75415	525.73639	
6166	61.650	-205.89595	27.05188	-192.45883	319.73279	25.02309	-121.65392	-123.38900	17.93748	238.51450	318.13550	19.57674	319.19473	46.78249	817.55450	-368.00916	-32.26773	557.14771	-341.38086	122.91354	563.05554	-357.25635	49.02325	553.12073	538.58051	189.92400	558.45789	526.70514	
6167	61.660	-205.85785	27.04051	-192.45778	319.72449	24.99509	-121.62800	-123.45627	17.98815	238.48686	318.48318	19.58461	319.17929	47.40398	817.67358	-367.42886	-31.86773	557.32275	-341.05789	123.29255	563.11188	-356.59155	49.06521	553.07599	539.45239	189.82954	558.48163	527.25452	
